<mxfile host="app.diagrams.net" modified="2021-02-08T10:25:24.009Z" agent="5.0 (Windows NT 10.0; Win64; x64) AppleWebKit/537.36 (KHTML, like Gecko) Chrome/88.0.4324.146 Safari/537.36" etag="754XoTtOVcaoq_kmTV8-" version="14.2.9" type="github">
  <diagram name="Page-1" id="9361dd3d-8414-5efd-6122-117bd74ce7a7">
    <mxGraphModel dx="1500" dy="838" grid="1" gridSize="10" guides="1" tooltips="1" connect="1" arrows="1" fold="1" page="0" pageScale="1.5" pageWidth="826" pageHeight="1169" background="#ffffff" math="0" shadow="0">
      <root>
        <mxCell id="0" />
        <mxCell id="1" parent="0" />
        <mxCell id="69" value="" style="fillColor=#DEE8FF;strokeColor=none" parent="1" vertex="1">
          <mxGeometry x="-12.5" y="-40" width="1310" height="640" as="geometry" />
        </mxCell>
        <mxCell id="2" value="" style="fillColor=#CC4125;strokeColor=#660000" parent="1" vertex="1">
          <mxGeometry x="200" y="150" width="10" height="380" as="geometry" />
        </mxCell>
        <mxCell id="4" value="User" style="shadow=1;fillColor=#60a917;strokeColor=#2D7600;fontColor=#ffffff;" parent="1" vertex="1">
          <mxGeometry x="152.5" y="90" width="105" height="50" as="geometry" />
        </mxCell>
        <mxCell id="6" value="" style="fillColor=#CC4125;strokeColor=#660000" parent="1" vertex="1">
          <mxGeometry x="342.5" y="180" width="10" height="340" as="geometry" />
        </mxCell>
        <mxCell id="8" value="" style="edgeStyle=none;endArrow=none;dashed=1" parent="1" target="6" edge="1">
          <mxGeometry x="272.3350694444445" y="165" width="100" height="100" as="geometry">
            <mxPoint x="347.5" y="110.00000000000011" as="sourcePoint" />
            <mxPoint x="347.5761959876544" y="165" as="targetPoint" />
          </mxGeometry>
        </mxCell>
        <mxCell id="9" value="initiates" style="edgeStyle=none;verticalLabelPosition=top;verticalAlign=bottom" parent="1" edge="1">
          <mxGeometry x="220" y="99" width="100" height="100" as="geometry">
            <mxPoint x="210" y="186.5" as="sourcePoint" />
            <mxPoint x="340" y="186.5" as="targetPoint" />
          </mxGeometry>
        </mxCell>
        <mxCell id="13" value="Activate" style="edgeStyle=none;verticalLabelPosition=top;verticalAlign=bottom;" parent="1" edge="1">
          <mxGeometry x="385.45524691358025" y="113.91550925925924" width="100" height="100" as="geometry">
            <mxPoint x="352.5" y="201.20563271604937" as="sourcePoint" />
            <mxPoint x="500" y="201" as="targetPoint" />
          </mxGeometry>
        </mxCell>
        <mxCell id="15" value="Camera" style="shadow=1;fillColor=#f8cecc;strokeColor=#b85450;" parent="1" vertex="1">
          <mxGeometry x="450.0039506172839" y="89.99999999999997" width="105" height="50" as="geometry" />
        </mxCell>
        <mxCell id="17" value="" style="fillColor=#CC4125;strokeColor=#660000" parent="1" vertex="1">
          <mxGeometry x="497.5" y="190" width="10" height="330" as="geometry" />
        </mxCell>
        <mxCell id="21" value="" style="fillColor=#CC4125;strokeColor=#660000" parent="1" vertex="1">
          <mxGeometry x="637.5" y="200" width="10" height="320" as="geometry" />
        </mxCell>
        <mxCell id="22" value="&lt;&lt;service&gt;&gt;&#xa;Image_Gray" style="shadow=1;fillColor=#f8cecc;strokeColor=#b85450;" parent="1" vertex="1">
          <mxGeometry x="590" y="90" width="105" height="50" as="geometry" />
        </mxCell>
        <mxCell id="23" value="" style="edgeStyle=none;endArrow=none;dashed=1" parent="1" source="22" target="21" edge="1">
          <mxGeometry x="614.4878472222224" y="174.99999999999997" width="100" height="100" as="geometry">
            <mxPoint x="674.6527777777778" y="110" as="sourcePoint" />
            <mxPoint x="674.6527777777778" y="260" as="targetPoint" />
          </mxGeometry>
        </mxCell>
        <mxCell id="24" value="&lt;&lt;service&gt;&gt;&#xa;:Image_Canny" style="shadow=1;fillColor=#f8cecc;strokeColor=#b85450;" parent="1" vertex="1">
          <mxGeometry x="840" y="90" width="105" height="50" as="geometry" />
        </mxCell>
        <mxCell id="27" value="perform" style="edgeStyle=elbowEdgeStyle;elbow=vertical;verticalLabelPosition=top;verticalAlign=bottom" parent="1" source="17" target="21" edge="1">
          <mxGeometry x="540" y="270" width="100" height="100" as="geometry">
            <mxPoint x="540" y="370" as="sourcePoint" />
            <mxPoint x="640" y="270" as="targetPoint" />
            <Array as="points">
              <mxPoint x="600" y="210" />
              <mxPoint x="590" y="270" />
            </Array>
          </mxGeometry>
        </mxCell>
        <mxCell id="33" value="" style="edgeStyle=elbowEdgeStyle;elbow=horizontal;endArrow=none;dashed=1" parent="1" source="4" target="2" edge="1">
          <mxGeometry x="230.00000000000003" y="310" width="100" height="100" as="geometry">
            <mxPoint x="230.00000000000003" y="410" as="sourcePoint" />
            <mxPoint x="330" y="310" as="targetPoint" />
          </mxGeometry>
        </mxCell>
        <mxCell id="34" value="performs" style="edgeStyle=elbowEdgeStyle;elbow=vertical;verticalLabelPosition=top;verticalAlign=bottom" parent="1" edge="1">
          <mxGeometry x="520" y="200.0261111111111" width="100" height="100" as="geometry">
            <mxPoint x="650" y="229.42040123456792" as="sourcePoint" />
            <mxPoint x="887.5" y="229" as="targetPoint" />
            <Array as="points" />
          </mxGeometry>
        </mxCell>
        <mxCell id="44" value="" style="edgeStyle=none;dashed=1;endArrow=none;" parent="1" edge="1">
          <mxGeometry x="192" y="300" width="100" height="100" as="geometry">
            <mxPoint x="347" y="270" as="sourcePoint" />
            <mxPoint x="347" y="360" as="targetPoint" />
          </mxGeometry>
        </mxCell>
        <mxCell id="53" value="request_change" style="edgeStyle=elbowEdgeStyle;elbow=vertical;verticalLabelPosition=top;verticalAlign=bottom" parent="1" edge="1">
          <mxGeometry x="387.5" y="289.3555555555556" width="100" height="100" as="geometry">
            <mxPoint x="210" y="330.11944444444447" as="sourcePoint" />
            <mxPoint x="770" y="330.12" as="targetPoint" />
            <Array as="points" />
          </mxGeometry>
        </mxCell>
        <mxCell id="54" value="" style="edgeStyle=elbowEdgeStyle;elbow=vertical;dashed=1;verticalLabelPosition=bottom;verticalAlign=top;entryX=0.75;entryY=0.853;entryDx=0;entryDy=0;entryPerimeter=0;" parent="1" target="6" edge="1">
          <mxGeometry x="673.75" y="477.33793209876535" width="100" height="100" as="geometry">
            <mxPoint x="1143.75" y="469.9961111111111" as="sourcePoint" />
            <mxPoint x="380" y="467" as="targetPoint" />
            <Array as="points" />
          </mxGeometry>
        </mxCell>
        <mxCell id="tE6BO9GWFNX0W8BT2dj9-134" value="results" style="edgeLabel;html=1;align=center;verticalAlign=middle;resizable=0;points=[];" parent="54" vertex="1" connectable="0">
          <mxGeometry relative="1" as="geometry">
            <mxPoint x="-31" as="offset" />
          </mxGeometry>
        </mxCell>
        <mxCell id="67" value="" style="edgeStyle=elbowEdgeStyle;elbow=vertical;dashed=1;verticalLabelPosition=bottom;verticalAlign=top" parent="1" edge="1">
          <mxGeometry x="507.50000000000006" y="604.3418209876543" width="100" height="100" as="geometry">
            <mxPoint x="342.5" y="489.5" as="sourcePoint" />
            <mxPoint x="210" y="489.5" as="targetPoint" />
            <Array as="points" />
          </mxGeometry>
        </mxCell>
        <mxCell id="68" value="results" style="edgeStyle=elbowEdgeStyle;elbow=vertical;dashed=1;verticalLabelPosition=bottom;verticalAlign=bottom" parent="1" edge="1">
          <mxGeometry x="556.25" y="260.4079320987654" width="100" height="100" as="geometry">
            <mxPoint x="1153.75" y="311.33000000000004" as="sourcePoint" />
            <mxPoint x="350" y="311" as="targetPoint" />
            <Array as="points" />
          </mxGeometry>
        </mxCell>
        <mxCell id="tE6BO9GWFNX0W8BT2dj9-89" value="ARTS_Object_Measures" style="label;whiteSpace=wrap;html=1;image=img/clipart/Gear_128x128.png" parent="1" vertex="1">
          <mxGeometry x="57.5" y="10" width="200" height="60" as="geometry" />
        </mxCell>
        <mxCell id="tE6BO9GWFNX0W8BT2dj9-91" value="ARTS_Object_&#xa;MeasurementsÂ " style="shadow=1;fillColor=#f8cecc;strokeColor=#b85450;" parent="1" vertex="1">
          <mxGeometry x="292.50395061728386" y="89.99999999999997" width="105" height="50" as="geometry" />
        </mxCell>
        <mxCell id="tE6BO9GWFNX0W8BT2dj9-93" value="&lt;&lt;service&gt;&gt;&#xa;:Image_Dilate" style="shadow=1;fillColor=#f8cecc;strokeColor=#b85450;" parent="1" vertex="1">
          <mxGeometry x="960" y="90" width="105" height="50" as="geometry" />
        </mxCell>
        <mxCell id="tE6BO9GWFNX0W8BT2dj9-94" value="&lt;&lt;service&gt;&gt;&#xa;:Image_Countours" style="shadow=1;fillColor=#f8cecc;strokeColor=#b85450;" parent="1" vertex="1">
          <mxGeometry x="1090" y="90" width="117.5" height="50" as="geometry" />
        </mxCell>
        <mxCell id="48" value="" style="fillColor=#CC4125;strokeColor=#660000" parent="1" vertex="1">
          <mxGeometry x="887.5" y="220" width="10" height="300" as="geometry" />
        </mxCell>
        <mxCell id="tE6BO9GWFNX0W8BT2dj9-99" value="" style="edgeStyle=none;endArrow=none;dashed=1" parent="1" source="24" target="48" edge="1">
          <mxGeometry x="727.3350694444446" y="165" width="100" height="100" as="geometry">
            <mxPoint x="802.4999999999995" y="140" as="sourcePoint" />
            <mxPoint x="802.4999999999995" y="289.3942901234568" as="targetPoint" />
          </mxGeometry>
        </mxCell>
        <mxCell id="tE6BO9GWFNX0W8BT2dj9-100" value="" style="fillColor=#CC4125;strokeColor=#660000" parent="1" vertex="1">
          <mxGeometry x="1007.5" y="240" width="10" height="280" as="geometry" />
        </mxCell>
        <mxCell id="tE6BO9GWFNX0W8BT2dj9-102" value="" style="edgeStyle=none;endArrow=none;dashed=1;exitX=0.5;exitY=1;exitDx=0;exitDy=0;entryX=0.5;entryY=0;entryDx=0;entryDy=0;" parent="1" source="tE6BO9GWFNX0W8BT2dj9-93" target="tE6BO9GWFNX0W8BT2dj9-100" edge="1">
          <mxGeometry x="737.3350694444446" y="175" width="100" height="100" as="geometry">
            <mxPoint x="812.3076923076924" y="150" as="sourcePoint" />
            <mxPoint x="812.1867099642577" y="218.55666666666662" as="targetPoint" />
            <Array as="points" />
          </mxGeometry>
        </mxCell>
        <mxCell id="tE6BO9GWFNX0W8BT2dj9-105" value="performs" style="edgeStyle=elbowEdgeStyle;elbow=vertical;verticalLabelPosition=top;verticalAlign=bottom" parent="1" edge="1">
          <mxGeometry x="732.5" y="226.9361111111111" width="100" height="100" as="geometry">
            <mxPoint x="900" y="256" as="sourcePoint" />
            <mxPoint x="1009.9999999999995" y="256.4394117647059" as="targetPoint" />
            <Array as="points" />
          </mxGeometry>
        </mxCell>
        <mxCell id="tE6BO9GWFNX0W8BT2dj9-106" value="performs" style="edgeStyle=elbowEdgeStyle;elbow=vertical;verticalLabelPosition=top;verticalAlign=bottom" parent="1" edge="1">
          <mxGeometry x="857.5" y="238.37611111111113" width="100" height="100" as="geometry">
            <mxPoint x="1020" y="268" as="sourcePoint" />
            <mxPoint x="1140" y="268" as="targetPoint" />
            <Array as="points" />
          </mxGeometry>
        </mxCell>
        <mxCell id="tE6BO9GWFNX0W8BT2dj9-107" value="" style="fillColor=#CC4125;strokeColor=#660000" parent="1" vertex="1">
          <mxGeometry x="1143.75" y="250" width="10" height="270" as="geometry" />
        </mxCell>
        <mxCell id="tE6BO9GWFNX0W8BT2dj9-108" value="" style="edgeStyle=none;endArrow=none;dashed=1;exitX=0.5;exitY=1;exitDx=0;exitDy=0;" parent="1" source="15" edge="1">
          <mxGeometry x="474.07784722222243" y="184.99999999999997" width="100" height="100" as="geometry">
            <mxPoint x="502.09000000000003" y="150" as="sourcePoint" />
            <mxPoint x="502.09000000000003" y="190.00429012345683" as="targetPoint" />
          </mxGeometry>
        </mxCell>
        <mxCell id="tE6BO9GWFNX0W8BT2dj9-111" value="Camera error" style="edgeStyle=elbowEdgeStyle;elbow=vertical;dashed=1;verticalLabelPosition=bottom;verticalAlign=top;entryX=1.083;entryY=0.869;entryDx=0;entryDy=0;entryPerimeter=0;exitX=0;exitY=0.5;exitDx=0;exitDy=0;" parent="1" source="17" edge="1">
          <mxGeometry x="-0.8300000000000125" y="10.48" width="100" height="100" as="geometry">
            <mxPoint x="482.5" y="260" as="sourcePoint" />
            <mxPoint x="352.5" y="260" as="targetPoint" />
            <Array as="points">
              <mxPoint x="459.17" y="260.48" />
            </Array>
            <mxPoint x="3" as="offset" />
          </mxGeometry>
        </mxCell>
        <mxCell id="tE6BO9GWFNX0W8BT2dj9-115" value="Threshold &#xa;Trackbar" style="shadow=1;fillColor=#f8cecc;strokeColor=#b85450;" parent="1" vertex="1">
          <mxGeometry x="720" y="90" width="105" height="50" as="geometry" />
        </mxCell>
        <mxCell id="tE6BO9GWFNX0W8BT2dj9-119" value="" style="edgeStyle=none;endArrow=none;dashed=1;exitX=0.5;exitY=1;exitDx=0;exitDy=0;entryX=0.5;entryY=0;entryDx=0;entryDy=0;" parent="1" source="tE6BO9GWFNX0W8BT2dj9-94" target="tE6BO9GWFNX0W8BT2dj9-107" edge="1">
          <mxGeometry x="747.3350694444446" y="185" width="100" height="100" as="geometry">
            <mxPoint x="1022.5" y="150" as="sourcePoint" />
            <mxPoint x="1022.5" y="249.99666666666667" as="targetPoint" />
            <Array as="points" />
          </mxGeometry>
        </mxCell>
        <mxCell id="tE6BO9GWFNX0W8BT2dj9-120" value="" style="edgeStyle=none;dashed=1;endArrow=none;exitX=0.5;exitY=1;exitDx=0;exitDy=0;" parent="1" source="tE6BO9GWFNX0W8BT2dj9-122" edge="1">
          <mxGeometry x="202" y="310" width="100" height="100" as="geometry">
            <mxPoint x="357" y="280" as="sourcePoint" />
            <mxPoint x="773" y="390" as="targetPoint" />
          </mxGeometry>
        </mxCell>
        <mxCell id="tE6BO9GWFNX0W8BT2dj9-122" value="" style="fillColor=#CC4125;strokeColor=#660000" parent="1" vertex="1">
          <mxGeometry x="767.5" y="315" width="10" height="205" as="geometry" />
        </mxCell>
        <mxCell id="tE6BO9GWFNX0W8BT2dj9-123" value="" style="edgeStyle=none;dashed=1;endArrow=none;exitX=0.5;exitY=1;exitDx=0;exitDy=0;" parent="1" source="tE6BO9GWFNX0W8BT2dj9-115" target="tE6BO9GWFNX0W8BT2dj9-122" edge="1">
          <mxGeometry x="202" y="310" width="100" height="100" as="geometry">
            <mxPoint x="772.5" y="140" as="sourcePoint" />
            <mxPoint x="773" y="390" as="targetPoint" />
          </mxGeometry>
        </mxCell>
        <mxCell id="tE6BO9GWFNX0W8BT2dj9-127" value="" style="endArrow=classic;html=1;entryX=0.631;entryY=0.462;entryDx=0;entryDy=0;entryPerimeter=0;" parent="1" edge="1">
          <mxGeometry width="50" height="50" relative="1" as="geometry">
            <mxPoint x="780" y="346" as="sourcePoint" />
            <mxPoint x="893.6700000000001" y="345.5999999999999" as="targetPoint" />
          </mxGeometry>
        </mxCell>
        <mxCell id="tE6BO9GWFNX0W8BT2dj9-128" value="Changes" style="edgeLabel;html=1;align=center;verticalAlign=middle;resizable=0;points=[];" parent="tE6BO9GWFNX0W8BT2dj9-127" vertex="1" connectable="0">
          <mxGeometry x="0.289" y="2" relative="1" as="geometry">
            <mxPoint as="offset" />
          </mxGeometry>
        </mxCell>
        <mxCell id="tE6BO9GWFNX0W8BT2dj9-129" value="" style="endArrow=classic;html=1;entryX=0.631;entryY=0.462;entryDx=0;entryDy=0;entryPerimeter=0;" parent="1" edge="1">
          <mxGeometry width="50" height="50" relative="1" as="geometry">
            <mxPoint x="898.5" y="357.81" as="sourcePoint" />
            <mxPoint x="1012.1700000000001" y="357.4099999999999" as="targetPoint" />
          </mxGeometry>
        </mxCell>
        <mxCell id="tE6BO9GWFNX0W8BT2dj9-130" value="Changes" style="edgeLabel;html=1;align=center;verticalAlign=middle;resizable=0;points=[];" parent="tE6BO9GWFNX0W8BT2dj9-129" vertex="1" connectable="0">
          <mxGeometry x="0.289" y="2" relative="1" as="geometry">
            <mxPoint as="offset" />
          </mxGeometry>
        </mxCell>
        <mxCell id="tE6BO9GWFNX0W8BT2dj9-131" value="" style="endArrow=classic;html=1;entryX=0.631;entryY=0.462;entryDx=0;entryDy=0;entryPerimeter=0;" parent="1" edge="1">
          <mxGeometry width="50" height="50" relative="1" as="geometry">
            <mxPoint x="1020" y="370" as="sourcePoint" />
            <mxPoint x="1143.75" y="369.99999999999983" as="targetPoint" />
          </mxGeometry>
        </mxCell>
        <mxCell id="tE6BO9GWFNX0W8BT2dj9-132" value="Changes" style="edgeLabel;html=1;align=center;verticalAlign=middle;resizable=0;points=[];" parent="tE6BO9GWFNX0W8BT2dj9-131" vertex="1" connectable="0">
          <mxGeometry x="0.289" y="2" relative="1" as="geometry">
            <mxPoint as="offset" />
          </mxGeometry>
        </mxCell>
      </root>
    </mxGraphModel>
  </diagram>
</mxfile>
